<svg width="12" height="12" viewBox="0 0 12 12" fill="none" xmlns="http://www.w3.org/2000/svg"><path d="M4.04186 2.73689C4.34794 2.73689 4.76912 2.73689 4.76912 3.04531C4.76912 3.35372 4.65454 3.73962 4.34794 3.73962C4.04186 3.73962 3.4297 3.4312 3.4297 3.1228C3.4297 2.81386 3.73578 2.73689 4.04186 2.73689Z" fill="#6B6B6B"/><path d="M6.62093 4.04807C6.46814 3.77814 6.23846 3.58519 5.97058 3.73965C5.7027 3.89413 5.74089 4.58792 5.93187 4.85784C6.08516 5.12776 6.42944 5.0123 6.69732 4.85784C6.9652 4.70338 6.77423 4.31799 6.62093 4.04807Z" fill="#6B6B6B"/><path d="M7.02678 8.74387C7.02678 9.05227 7.63894 9.36069 7.94502 9.36069C8.2511 9.36069 8.36621 8.97532 8.36621 8.6669C8.36621 8.35849 7.94501 8.35849 7.63894 8.35849C7.33287 8.35849 7.02678 8.43546 7.02678 8.74387Z" fill="#6B6B6B"/><path d="M6.56793 6.86281C6.68251 6.59289 7.21828 6.13001 7.48617 6.246C7.75405 6.36145 7.71585 6.67039 7.60075 6.94031C7.48617 7.21023 7.29467 7.59562 7.02678 7.48016C6.72123 7.36417 6.45335 7.13274 6.56793 6.86281Z" fill="#6B6B6B"/><path d="M5.1903 9.8159C5.4969 9.8159 5.61149 9.43 5.61149 9.12159C5.61149 8.81318 5.19083 8.81317 4.88422 8.8137C4.57815 8.8137 4.27206 8.89067 4.27206 9.19908C4.27206 9.50748 4.88422 9.8159 5.1903 9.8159Z" fill="#6B6B6B"/><path d="M5.1903 6.82826C5.1903 6.51985 4.76912 6.51985 4.46304 6.51985C4.15697 6.51985 3.85088 6.59682 3.85088 6.90576C3.85088 7.21416 4.46304 7.52258 4.76912 7.52258C5.07572 7.52258 5.1903 7.13668 5.1903 6.82826Z" fill="#6B6B6B"/><path d="M2.52417 4.89691C2.79205 4.74244 3.48112 4.74244 3.63391 5.01236C3.78721 5.28229 3.55752 5.51372 3.28964 5.62918C3.02175 5.78364 2.63928 5.9376 2.48598 5.66767C2.33321 5.39827 2.25629 5.05137 2.52417 4.89691Z" fill="#6B6B6B"/><path fill-rule="evenodd" clip-rule="evenodd" d="M5.97257 0C2.69107 0 0.0026432 2.7049 0 6.01462L4.0413e-05 6.02172C0.0399375 9.29405 2.72939 12 6.01125 12C9.23034 12 11.8783 9.39721 11.9807 6.17416L11.9972 5.65643L11.4817 5.61337C11.2541 5.59435 11.0596 5.55075 10.9006 5.50016C10.7476 5.45143 10.629 5.39675 10.5469 5.35288L10.4588 5.30526L10.3797 5.28915C9.61289 5.13299 9.23701 4.69222 9.07073 4.25653C9.03709 4.16838 9.01243 4.08169 8.99453 3.9992L8.92805 3.69274L8.63009 3.59614C8.49579 3.55261 8.38188 3.49123 8.28588 3.41114C8.07671 3.23666 7.9948 3.00581 7.97439 2.79455C7.96228 2.6691 7.97112 2.54517 7.98939 2.43365L8.02447 2.21957L7.9031 2.03987C7.84009 1.94658 7.7976 1.83899 7.77679 1.72215C7.73627 1.49474 7.77966 1.2551 7.84122 1.04917C7.85431 1.00538 7.86871 0.961596 7.88406 0.918171L8.08034 0.362759L7.51218 0.209654C7.0191 0.0767808 6.49584 0 5.97257 0ZM6.01125 10.9093C3.33582 10.9093 1.12382 8.69452 1.08919 6.01195C1.09327 3.29966 3.2996 1.09066 5.97257 1.09066C6.21459 1.09066 6.45973 1.11128 6.7027 1.15003C6.66767 1.3748 6.65529 1.63729 6.70453 1.91369C6.7379 2.10098 6.79841 2.28641 6.88894 2.46197C6.87746 2.59555 6.87518 2.74334 6.89027 2.89955C6.92979 3.30875 7.09969 3.84115 7.58872 4.24911C7.72023 4.35882 7.86131 4.44789 8.00838 4.5191C8.02207 4.56087 8.03701 4.60317 8.05331 4.64588C8.3369 5.38892 8.97589 6.08944 10.0836 6.34091C10.2115 6.40605 10.3743 6.47707 10.5707 6.53957C10.6588 6.56762 10.7533 6.59381 10.8538 6.61693C10.5412 9.03378 8.47412 10.9093 6.01125 10.9093Z" fill="#6B6B6B"/></svg>