<svg width="59" height="66" viewBox="0 0 59 66" fill="none" xmlns="http://www.w3.org/2000/svg"><path fill-rule="evenodd" clip-rule="evenodd" d="M54.6667 31.3333H50.6667V39.3333H54.6667C55.403 39.3333 56 38.7363 56 38V32.6666C56 31.9302 55.403 31.3333 54.6667 31.3333ZM48 28.6666V42H54.6667C56.8758 42 58.6667 40.2091 58.6667 38V32.6666C58.6667 30.4575 56.8758 28.6666 54.6667 28.6666H48Z" fill="#E3E3E3"/><path fill-rule="evenodd" clip-rule="evenodd" d="M0 26.6667C0 23.7212 2.38781 21.3334 5.33333 21.3334H45.3333C48.2789 21.3334 50.6667 23.7212 50.6667 26.6667V38C50.6667 50.5185 40.5185 60.6667 28 60.6667H22.6667C10.1482 60.6667 0 50.5185 0 38V26.6667ZM5.33333 24C3.86057 24 2.66667 25.1939 2.66667 26.6667V38C2.66667 49.0457 11.621 58 22.6667 58H28C39.0457 58 48 49.0457 48 38V26.6667C48 25.1939 46.8061 24 45.3333 24H5.33333Z" fill="#E3E3E3"/><path fill-rule="evenodd" clip-rule="evenodd" d="M21.3333 0.666626C22.0696 0.666626 22.6666 1.26358 22.6666 1.99996C22.6666 4.64153 22.3757 6.33056 21.7995 7.49686C21.2201 8.66932 20.4016 9.18905 19.8381 9.54681C19.7977 9.57249 19.7586 9.59734 19.7209 9.62153C19.2395 9.93101 18.9146 10.1637 18.6269 10.8557C18.2918 11.6615 17.9999 13.1365 17.9999 16C17.9999 16.7363 17.403 17.3333 16.6666 17.3333C15.9302 17.3333 15.3333 16.7363 15.3333 16C15.3333 13.0301 15.6247 11.1301 16.1646 9.83175C16.7519 8.41958 17.5937 7.81891 18.2789 7.37839C18.3022 7.36339 18.3251 7.34872 18.3474 7.33437C18.9046 6.97675 19.1644 6.80992 19.4087 6.31556C19.7074 5.71103 19.9999 4.52505 19.9999 1.99996C19.9999 1.26358 20.5969 0.666626 21.3333 0.666626Z" fill="#E3E3E3"/><path fill-rule="evenodd" clip-rule="evenodd" d="M28.6667 0.666626C29.4031 0.666626 30.0001 1.26358 30.0001 1.99996C30.0001 4.64153 29.7092 6.33056 29.133 7.49686C28.5536 8.66932 27.7351 9.18905 27.1716 9.54681C27.1312 9.57249 27.0921 9.59734 27.0544 9.62153C26.573 9.93101 26.2481 10.1637 25.9604 10.8557C25.6253 11.6615 25.3334 13.1365 25.3334 16C25.3334 16.7363 24.7365 17.3333 24.0001 17.3333C23.2637 17.3333 22.6667 16.7363 22.6667 16C22.6667 13.0301 22.9582 11.1301 23.4981 9.83175C24.0854 8.41958 24.9272 7.81891 25.6124 7.37839C25.6357 7.36339 25.6586 7.34872 25.6809 7.33437C26.238 6.97675 26.4979 6.80992 26.7422 6.31556C27.0409 5.71103 27.3334 4.52505 27.3334 1.99996C27.3334 1.26358 27.9304 0.666626 28.6667 0.666626Z" fill="#E3E3E3"/><path fill-rule="evenodd" clip-rule="evenodd" d="M36 0.666626C36.7364 0.666626 37.3333 1.26358 37.3333 1.99996C37.3333 4.64153 37.0425 6.33056 36.4662 7.49686C35.8869 8.66932 35.0683 9.18905 34.5049 9.54681C34.4644 9.57249 34.4253 9.59734 34.3877 9.62153C33.9063 9.93101 33.5814 10.1637 33.2936 10.8557C32.9585 11.6615 32.6667 13.1365 32.6667 16C32.6667 16.7363 32.0697 17.3333 31.3333 17.3333C30.597 17.3333 30 16.7363 30 16C30 13.0301 30.2915 11.1301 30.8314 9.83175C31.4186 8.41958 32.2604 7.81891 32.9457 7.37839C32.969 7.36339 32.9918 7.34872 33.0142 7.33437C33.5713 6.97675 33.8312 6.80992 34.0755 6.31556C34.3742 5.71103 34.6667 4.52505 34.6667 1.99996C34.6667 1.26358 35.2636 0.666626 36 0.666626Z" fill="#E3E3E3"/><rect y="63.3334" width="53.3333" height="2.66667" rx="1.33333" fill="#E3E3E3"/><circle cx="57.3333" cy="64.6667" r="1.33333" fill="#E3E3E3"/></svg>