<svg width="16" height="16" viewBox="0 0 16 16" fill="none" xmlns="http://www.w3.org/2000/svg"><path fill-rule="evenodd" clip-rule="evenodd" d="M1 2C1 1.44772 1.44771 1 2 1H10.7929C11.0581 1 11.3125 1.10536 11.5 1.29289L14.7071 4.5C14.8946 4.68754 15 4.94189 15 5.20711V14C15 14.5523 14.5523 15 14 15H2C1.44772 15 1 14.5523 1 14V2ZM10.7929 2H9V4C9 4.55228 8.55228 5 8 5H5C4.44772 5 4 4.55228 4 4V2L2 2V14L4 14L4 10C4 9.44772 4.44772 9 5 9H11C11.5523 9 12 9.44771 12 10V14H14V5.20711L10.7929 2ZM11 14L11 10H5L5 14L11 14ZM5 2H8V4H5V2Z" fill="#707070"/></svg>