<svg width="12" height="12" viewBox="0 0 12 12" fill="none" xmlns="http://www.w3.org/2000/svg"><path d="M8.64648 3.64645L5.5 6.79291L3.85364 5.14645L3.14648 5.85356L5.5 8.20711L9.35364 4.35356L8.64648 3.64645Z" fill="#6B6B6B"/><path fill-rule="evenodd" clip-rule="evenodd" d="M12 6C12 9.31371 9.31372 12 6 12C2.68628 12 0 9.31371 0 6C0 2.68629 2.68628 0 6 0C9.31372 0 12 2.68629 12 6ZM11 6C11 8.76143 8.76147 11 6 11C3.23853 11 1 8.76143 1 6C1 3.23857 3.23853 1 6 1C8.76147 1 11 3.23857 11 6Z" fill="#6B6B6B"/></svg>