<svg width="16" height="16" viewBox="0 0 16 16" fill="none" xmlns="http://www.w3.org/2000/svg"><path fill-rule="evenodd" clip-rule="evenodd" d="M3 4C3 2.34315 4.34315 1 6 1C7.65685 1 9 2.34315 9 4C9 5.65685 7.65685 7 6 7C4.34315 7 3 5.65685 3 4ZM6 2C4.89543 2 4 2.89543 4 4C4 5.10457 4.89543 6 6 6C7.10457 6 8 5.10457 8 4C8 2.89543 7.10457 2 6 2Z" fill="#6B6B6B"/><path d="M15 11H12V8H11V11H8V12H11V15H12V12H15V11Z" fill="#6B6B6B"/><path d="M2 13.7308C2 12.2166 2.44962 11.1762 3.13411 10.5129C3.82212 9.84619 4.80976 9.5 6 9.5C6.31991 9.5 6.62584 9.52514 6.91532 9.57488C7.23472 9.62977 7.53362 9.71452 7.80934 9.82825L8.19066 8.90381C7.84128 8.75969 7.47069 8.65566 7.08468 8.58933C6.7349 8.52922 6.37207 8.5 6 8.5C4.61999 8.5 3.35763 8.90381 2.4382 9.79478C1.51525 10.6892 1 12.0142 1 13.7308V15H2V13.7308Z" fill="#6B6B6B"/></svg>