<svg width="16" height="16" viewBox="0 0 16 16" fill="none" xmlns="http://www.w3.org/2000/svg"><path d="M2.5 7C2.22386 7 2 6.77614 2 6.5V2.5C2 2.22386 2.22386 2 2.5 2H13.5C13.7761 2 14 2.22386 14 2.5V6.5C14 6.77614 13.7761 7 13.5 7H11V8H13.5C14.3284 8 15 7.32843 15 6.5V2.5C15 1.67157 14.3284 1 13.5 1H2.5C1.67157 1 1 1.67157 1 2.5V6.5C1 7.32843 1.67157 8 2.5 8H5V7H2.5Z" fill="#6B6B6B"/><path d="M8.00004 15.2071L11.8536 11.3536L11.1465 10.6464L8.5 13.2929V4.5H7.5V13.2929L4.85359 10.6464L4.14648 11.3536L8.00004 15.2071Z" fill="#6B6B6B"/></svg>