<svg width="12" height="12" viewBox="0 0 12 12" fill="none" xmlns="http://www.w3.org/2000/svg"><path d="M4.64999 4.35323V7.64676C4.64999 7.80222 4.81959 7.89824 4.95289 7.81825L7.6975 6.17149C7.82696 6.09381 7.82696 5.90618 7.6975 5.8285L4.95289 4.18173C4.81959 4.10175 4.64999 4.19777 4.64999 4.35323Z" fill="#6B6B6B"/><path fill-rule="evenodd" clip-rule="evenodd" d="M2.5 1C1.67157 1 1 1.67157 1 2.5V9.5C1 10.3284 1.67157 11 2.5 11H9.5C10.3284 11 11 10.3284 11 9.5V2.5C11 1.67157 10.3284 1 9.5 1H2.5ZM2 2.5C2 2.22386 2.22386 2 2.5 2H9.5C9.77614 2 10 2.22386 10 2.5V9.5C10 9.77614 9.77614 10 9.5 10H2.5C2.22386 10 2 9.77614 2 9.5V2.5Z" fill="#6B6B6B"/></svg>